<svg width="32" height="32" viewBox="0 0 224 224" fill="none" xmlns="http://www.w3.org/2000/svg">
<path d="M0 112V224H112H224V112V0H112H0V112ZM72.8 46C83 50.5 88.4 58.6 88.4 69.5C88.4 79.6 86.1 83.8 74.9 94.8L65.5 104H82.2H98.9L99.4 100.7C99.7 99 100.7 89.2 101.5 79C102.3 68.8 103.3 58.8 103.6 56.7L125 40L123 56.2C124 39 122.1 69.2 121 81C119.9 92.8 119 102.8 119 103.2C119 103.6 134.5 104.1 153.5 104.2L187.9 104.5L172.5 121.5C163.9 130.8 155.6 140.5 154 142.9C148.3 151.3 147.7 159.5 152.5 164C157.9 169.1 166 165.1 166 157.4V154H176.5H187V157.5C187 162.9 183.4 171.2 179.3 175.2C167.8 186.4 147.4 186.3 136.1 174.9C131.1 169.9 128.6 163.7 128.6 155.9C128.6 146.3 131.8 140.4 143 129.6L151.9 121H134.7H117.4L113.3 168.2C90.3 194 90.3 194 113.3 168.2L90.3 195L93.3 168.2C93.7 165.6 94.6 155.2 95.5 145C96.3 134.8 97.2 125.3 97.5 123.8L97.9 121L63.4 120.8L28.9 120.5L46.1 102C64.4 82.4 68 77 68 69.2C68 66 67.4 64.3 65.5 62.5C60.2 57.1 52 60.8 52 68.6V72H41.5H31V68.2C31 60.9 38 50.2 45.2 46.4C52.6 42.6 64.6 42.4 72.8 46Z" fill="black"/>
</svg>
