<svg width="870" height="458" viewBox="0 0 870 458" fill="none" xmlns="http://www.w3.org/2000/svg">
<g id="Web-design-and-development">
<g id="Group">
<g id="background">
<g id="Rectangle">
<path id="Mask" d="M55.4168 447.382C13.933 388.959 -4.26044 333.625 0.836607 281.378C8.48218 203.008 38.1666 141.94 127.992 131.254C202.107 122.437 264.751 135.372 290.317 104.887C454.728 -91.1542 909.893 -31.5341 866.779 447.528L55.4168 447.382Z" fill="#F3FAFF"/>
<g id="Mask group">
<mask id="mask0_3_55" style="mask-type:luminance" maskUnits="userSpaceOnUse" x="0" y="0" width="870" height="448">
<g id="Group_2">
<path id="Vector" d="M55.4168 447.382C13.933 388.959 -4.26044 333.625 0.836607 281.378C8.48218 203.008 38.1666 141.94 127.992 131.254C202.107 122.437 264.751 135.372 290.317 104.887C454.728 -91.1542 909.893 -31.5341 866.779 447.528L55.4168 447.382Z" fill="#E6F3FB"/>
</g>
</mask>
<g mask="url(#mask0_3_55)">
<path id="Vector_2" fill-rule="evenodd" clip-rule="evenodd" d="M-20.426 290.287H884.767V523.837H-20.426V290.287Z" fill="#E6F3FB"/>
</g>
</g>
</g>
</g>
<g id="Group 1">
<g id="imac">
<path id="Rectangle_2" d="M728.127 435.121H610.705C607.862 435.121 605.557 437.425 605.557 440.269V444.002C605.557 446.845 607.862 449.15 610.705 449.15H728.127C730.97 449.15 733.275 446.845 733.275 444.002V440.269C733.275 437.425 730.97 435.121 728.127 435.121Z" fill="#061D38"/>
<g id="Path-34">
<path id="Mask_2" d="M629.779 392.565C630.439 413.571 628.327 427.756 623.444 435.121L715.255 435.194C711.105 428.831 709.029 414.008 709.029 390.725C709.029 367.441 682.613 368.055 629.779 392.565Z" fill="#7FC1FF"/>
<g id="Mask group_2">
<mask id="mask1_3_55" style="mask-type:luminance" maskUnits="userSpaceOnUse" x="623" y="373" width="93" height="63">
<g id="Group_3">
<path id="Vector_3" d="M629.779 392.565C630.439 413.571 628.327 427.756 623.444 435.121L715.255 435.194C711.105 428.831 709.029 414.008 709.029 390.725C709.029 367.441 682.613 368.055 629.779 392.565Z" fill="#3E6C98"/>
</g>
</mask>
<g mask="url(#mask1_3_55)">
<path id="Vector_4" fill-rule="evenodd" clip-rule="evenodd" d="M715.255 392.006L620.782 407.607V382.433L715.255 392.006Z" fill="#3E6C98"/>
</g>
</g>
</g>
<g id="Rectangle-Copy">
<path id="Mask_3" d="M856.31 115.25H482.99C475.236 115.25 468.95 121.536 468.95 129.29V378.525C468.95 386.279 475.236 392.565 482.99 392.565H856.31C864.064 392.565 870.35 386.279 870.35 378.525V129.29C870.35 121.536 864.064 115.25 856.31 115.25Z" fill="#7FC1FF"/>
<g id="Mask group_3">
<mask id="mask2_3_55" style="mask-type:luminance" maskUnits="userSpaceOnUse" x="468" y="115" width="403" height="278">
<g id="Group_4" opacity="0.1">
<path id="Vector_5" d="M856.31 115.25H482.99C475.236 115.25 468.95 121.536 468.95 129.29V378.525C468.95 386.279 475.236 392.565 482.99 392.565H856.31C864.064 392.565 870.35 386.279 870.35 378.525V129.29C870.35 121.536 864.064 115.25 856.31 115.25Z" fill="white"/>
</g>
</mask>
<g mask="url(#mask2_3_55)">
<path id="Rectangle_3" opacity="0.1" fill-rule="evenodd" clip-rule="evenodd" d="M459.694 433.614L573.56 264.906L644.384 312.648L530.518 481.355L459.694 433.614Z" fill="white"/>
</g>
</g>
<g id="Mask group_4">
<mask id="mask3_3_55" style="mask-type:luminance" maskUnits="userSpaceOnUse" x="468" y="115" width="403" height="278">
<g id="Group_5" opacity="0.1">
<path id="Vector_6" d="M856.31 115.25H482.99C475.236 115.25 468.95 121.536 468.95 129.29V378.525C468.95 386.279 475.236 392.565 482.99 392.565H856.31C864.064 392.565 870.35 386.279 870.35 378.525V129.29C870.35 121.536 864.064 115.25 856.31 115.25Z" fill="white"/>
</g>
</mask>
<g mask="url(#mask3_3_55)">
<path id="Rectangle-Copy-3" opacity="0.1" fill-rule="evenodd" clip-rule="evenodd" d="M485.369 413.539L571.096 286.524L624.457 322.493L538.73 449.509L485.369 413.539Z" fill="white"/>
</g>
</g>
<g id="Mask group_5">
<mask id="mask4_3_55" style="mask-type:luminance" maskUnits="userSpaceOnUse" x="468" y="115" width="403" height="278">
<g id="Group_6" opacity="0.1">
<path id="Vector_7" d="M856.31 115.25H482.99C475.236 115.25 468.95 121.536 468.95 129.29V378.525C468.95 386.279 475.236 392.565 482.99 392.565H856.31C864.064 392.565 870.35 386.279 870.35 378.525V129.29C870.35 121.536 864.064 115.25 856.31 115.25Z" fill="white"/>
</g>
</mask>
<g mask="url(#mask4_3_55)">
<path id="Rectangle-Copy-5" opacity="0.1" fill-rule="evenodd" clip-rule="evenodd" d="M740.557 422.108L826.054 295.4L879.233 331.257L793.735 457.965L740.557 422.108Z" fill="white"/>
</g>
</g>
<g id="Mask group_6">
<mask id="mask5_3_55" style="mask-type:luminance" maskUnits="userSpaceOnUse" x="468" y="115" width="403" height="278">
<g id="Group_7" opacity="0.1">
<path id="Vector_8" d="M856.31 115.25H482.99C475.236 115.25 468.95 121.536 468.95 129.29V378.525C468.95 386.279 475.236 392.565 482.99 392.565H856.31C864.064 392.565 870.35 386.279 870.35 378.525V129.29C870.35 121.536 864.064 115.25 856.31 115.25Z" fill="white"/>
</g>
</mask>
<g mask="url(#mask5_3_55)">
<path id="Rectangle-Copy-4" opacity="0.1" fill-rule="evenodd" clip-rule="evenodd" d="M759.866 407.017L824.061 311.774L864.019 338.746L799.824 433.989L759.866 407.017Z" fill="white"/>
</g>
</g>
<g id="Mask group_7">
<mask id="mask6_3_55" style="mask-type:luminance" maskUnits="userSpaceOnUse" x="468" y="115" width="403" height="278">
<g id="Group_8">
<path id="Vector_9" d="M856.31 115.25H482.99C475.236 115.25 468.95 121.536 468.95 129.29V378.525C468.95 386.279 475.236 392.565 482.99 392.565H856.31C864.064 392.565 870.35 386.279 870.35 378.525V129.29C870.35 121.536 864.064 115.25 856.31 115.25Z" fill="#3E6C98"/>
</g>
</mask>
<g mask="url(#mask6_3_55)">
<path id="Vector_10" d="M870.35 115.25H468.95V354.685H870.35V115.25Z" fill="#3E6C98"/>
</g>
</g>
<g id="Mask group_8">
<mask id="mask7_3_55" style="mask-type:luminance" maskUnits="userSpaceOnUse" x="468" y="115" width="403" height="278">
<g id="Group_9">
<path id="Vector_11" d="M856.31 115.25H482.99C475.236 115.25 468.95 121.536 468.95 129.29V378.525C468.95 386.279 475.236 392.565 482.99 392.565H856.31C864.064 392.565 870.35 386.279 870.35 378.525V129.29C870.35 121.536 864.064 115.25 856.31 115.25Z" fill="#00B3FF" stroke="#040404" stroke-opacity="0.620821" stroke-width="0.5"/>
</g>
</mask>
<g mask="url(#mask7_3_55)">
<path id="Rectangle-Copy-2" d="M852.79 131.868H486.51V338.535H852.79V131.868Z" fill="#CAE9FF" stroke="#040404" stroke-opacity="0.620821" stroke-width="0.5"/>
</g>
</g>
</g>
</g>
<g id="board">
<g id="Group-75">
<g id="Group-67">
<g id="Rectangle-Copy-88">
<path id="Mask_4" d="M523.4 59H815.9C818.634 59 820.85 61.2162 820.85 63.95V338H518.45V63.95C518.45 61.2162 520.666 59 523.4 59Z" fill="#CAE9FF"/>
<g id="Mask group_9">
<mask id="mask8_3_55" style="mask-type:luminance" maskUnits="userSpaceOnUse" x="518" y="59" width="303" height="279">
<g id="Group_10">
<path id="Vector_12" d="M523.4 59H815.9C818.634 59 820.85 61.2162 820.85 63.95V338H518.45V63.95C518.45 61.2162 520.666 59 523.4 59Z" fill="#88C0FF"/>
</g>
</mask>
<g mask="url(#mask8_3_55)">
<path id="Vector_13" fill-rule="evenodd" clip-rule="evenodd" d="M517.1 59H902.75L901.4 80.6H515.75L517.1 59Z" fill="#00B3FF"/>
</g>
</g>
<g id="Mask group_10">
<mask id="mask9_3_55" style="mask-type:luminance" maskUnits="userSpaceOnUse" x="518" y="59" width="303" height="279">
<g id="Group_11">
<path id="Vector_14" d="M523.4 59H815.9C818.634 59 820.85 61.2162 820.85 63.95V338H518.45V63.95C518.45 61.2162 520.666 59 523.4 59Z" fill="#3E6C98"/>
</g>
</mask>
<g mask="url(#mask9_3_55)">
<path id="Oval" d="M529.25 73.4C530.493 73.4 531.5 72.3926 531.5 71.15C531.5 69.9074 530.493 68.9 529.25 68.9C528.007 68.9 527 69.9074 527 71.15C527 72.3926 528.007 73.4 529.25 73.4Z" fill="#3E6C98"/>
</g>
</g>
<g id="Mask group_11">
<mask id="mask10_3_55" style="mask-type:luminance" maskUnits="userSpaceOnUse" x="518" y="59" width="303" height="279">
<g id="Group_12">
<path id="Vector_15" d="M523.4 59H815.9C818.634 59 820.85 61.2162 820.85 63.95V338H518.45V63.95C518.45 61.2162 520.666 59 523.4 59Z" fill="#3E6C98"/>
</g>
</mask>
<g mask="url(#mask10_3_55)">
<path id="Oval-Copy-36" d="M540.95 73.4C542.193 73.4 543.2 72.3926 543.2 71.15C543.2 69.9074 542.193 68.9 540.95 68.9C539.707 68.9 538.7 69.9074 538.7 71.15C538.7 72.3926 539.707 73.4 540.95 73.4Z" fill="#3E6C98"/>
</g>
</g>
<g id="Mask group_12">
<mask id="mask11_3_55" style="mask-type:luminance" maskUnits="userSpaceOnUse" x="518" y="59" width="303" height="279">
<g id="Group_13">
<path id="Vector_16" d="M523.4 59H815.9C818.634 59 820.85 61.2162 820.85 63.95V338H518.45V63.95C518.45 61.2162 520.666 59 523.4 59Z" fill="#3E6C98"/>
</g>
</mask>
<g mask="url(#mask11_3_55)">
<path id="Oval-Copy-37" d="M552.65 73.4C553.893 73.4 554.9 72.3926 554.9 71.15C554.9 69.9074 553.893 68.9 552.65 68.9C551.407 68.9 550.4 69.9074 550.4 71.15C550.4 72.3926 551.407 73.4 552.65 73.4Z" fill="#3E6C98"/>
</g>
</g>
</g>
</g>
</g>
<g id="card-1">
<g id="Group-76-Copy">
<g id="Rectangle_4">
<g id="Vector_17" filter="url(#filter0_d_3_55)">
<path d="M619.7 107.15H424.4C421.418 107.15 419 109.568 419 112.55V171.5C419 174.482 421.418 176.9 424.4 176.9H619.7C622.682 176.9 625.1 174.482 625.1 171.5V112.55C625.1 109.568 622.682 107.15 619.7 107.15Z" fill="black"/>
</g>
<path id="Vector_18" d="M619.7 107.15H424.4C421.418 107.15 419 109.568 419 112.55V171.5C419 174.482 421.418 176.9 424.4 176.9H619.7C622.682 176.9 625.1 174.482 625.1 171.5V112.55C625.1 109.568 622.682 107.15 619.7 107.15Z" fill="white"/>
</g>
<path id="Path-623" d="M496.85 131.195H604.862" stroke="#88C0FF" stroke-width="2.7216" stroke-linecap="round"/>
<path id="Path-623-Copy" d="M496.85 142.895H569.678" stroke="#88C0FF" stroke-width="2.7216" stroke-linecap="round"/>
<g id="70367">
<path id="Shape" d="M471.954 140.887C471.896 140.375 471.299 139.991 470.783 139.991C469.114 139.991 467.634 139.011 467.013 137.495C466.378 135.943 466.787 134.133 468.031 132.993C468.422 132.635 468.47 132.036 468.142 131.62C467.288 130.535 466.317 129.555 465.257 128.706C464.842 128.373 464.233 128.42 463.873 128.818C462.788 130.02 460.838 130.467 459.332 129.838C457.764 129.179 456.775 127.59 456.872 125.885C456.904 125.349 456.512 124.883 455.978 124.821C454.618 124.664 453.246 124.659 451.882 124.81C451.354 124.869 450.962 125.323 450.98 125.852C451.039 127.541 450.039 129.102 448.487 129.737C446.998 130.345 445.062 129.902 443.979 128.711C443.621 128.319 443.022 128.27 442.605 128.596C441.514 129.452 440.521 130.432 439.659 131.508C439.323 131.926 439.373 132.532 439.768 132.892C441.035 134.04 441.444 135.865 440.786 137.435C440.157 138.932 438.603 139.897 436.824 139.897C436.247 139.878 435.835 140.266 435.772 140.791C435.612 142.159 435.61 143.552 435.764 144.932C435.822 145.446 436.437 145.827 436.958 145.827C438.544 145.787 440.066 146.768 440.705 148.322C441.342 149.874 440.932 151.683 439.687 152.825C439.297 153.183 439.248 153.781 439.576 154.197C440.422 155.275 441.393 156.255 442.457 157.111C442.874 157.448 443.481 157.4 443.843 157.002C444.932 155.797 446.882 155.351 448.382 155.981C449.954 156.638 450.942 158.227 450.846 159.933C450.814 160.469 451.208 160.935 451.739 160.996C452.435 161.078 453.135 161.118 453.837 161.118C454.503 161.118 455.17 161.082 455.836 161.007C456.364 160.949 456.755 160.494 456.737 159.965C456.676 158.277 457.679 156.716 459.229 156.082C460.727 155.469 462.655 155.917 463.738 157.108C464.098 157.499 464.693 157.546 465.113 157.222C466.202 156.368 467.193 155.389 468.059 154.31C468.395 153.893 468.347 153.286 467.95 152.926C466.682 151.778 466.271 149.952 466.93 148.384C467.548 146.907 469.045 145.915 470.655 145.915L470.88 145.921C471.402 145.963 471.882 145.561 471.946 145.028C472.106 143.659 472.108 142.266 471.954 140.887ZM453.888 149.021C450.539 149.021 447.814 146.297 447.814 142.948C447.814 139.598 450.539 136.874 453.888 136.874C457.237 136.874 459.961 139.598 459.961 142.948C459.961 146.297 457.237 149.021 453.888 149.021Z" fill="#88C0FF">
<animate 
  attributeName="fill"
  values="#88C0FF;#00B3FF;#88C0FF"
  dur="3s"
  repeatCount="indefinite"/>
<animateTransform
  attributeName="transform"
  attributeType="XML"
  type="rotate"
  from="0 453.888 142.948"
  to="360 453.888 142.948"
  dur="10s"
  repeatCount="indefinite"/>
</path>
<path id="Path-623-Copy-2" d="M496.85 154.595H591.668" stroke="#88C0FF" stroke-width="2.7216" stroke-linecap="round">
<animate 
  attributeName="stroke"
  values="#88C0FF;#00B3FF;#88C0FF"
  dur="3s"
  repeatCount="indefinite"/>
</path>
</g>
</g>
</g>
<g id="card-3">
<g id="Group-76-Copy-3">
<g id="Rectangle_5">
<g id="Vector_19" filter="url(#filter1_d_3_55)">
<path d="M619.7 283.553H464.45C461.468 283.553 459.05 286.551 459.05 290.249V346.607C459.05 350.305 461.468 353.303 464.45 353.303H619.7C622.682 353.303 625.1 350.305 625.1 346.607V290.249C625.1 286.551 622.682 283.553 619.7 283.553Z" fill="black"/>
</g>
<path id="Vector_20" d="M619.7 283.553H464.45C461.468 283.553 459.05 286.551 459.05 290.249V346.607C459.05 350.305 461.468 353.303 464.45 353.303H619.7C622.682 353.303 625.1 350.305 625.1 346.607V290.249C625.1 286.551 622.682 283.553 619.7 283.553Z" fill="white"/>
</g>
<g id="Group-78">
<path id="Oval-Copy-39" d="M492.409 333.773C498.406 333.773 503.268 327.777 503.268 320.381C503.268 312.985 498.406 306.989 492.409 306.989C486.412 306.989 481.55 312.985 481.55 320.381C481.55 327.777 486.412 333.773 492.409 333.773Z" fill="#3E6C98"/>
<path id="Path-623_2" opacity="0.517229" d="M518.45 328.872H599.34" stroke="#3E6C98" stroke-width="5.67" stroke-linecap="round"/>
<path id="Path-623-Copy-3" d="M518.45 328.872H576.228" stroke="#3E6C98" stroke-width="5.67" stroke-linecap="round"/>
<path id="Path-623-Copy-5" opacity="0.517229" d="M518.45 311.647H599.34" stroke="#3E6C98" stroke-width="5.67" stroke-linecap="round"/>
<path id="Path-623-Copy-4" d="M518.45 311.647H576.228" stroke="#3E6C98" stroke-width="5.67" stroke-linecap="round"/>
</g>
</g>
</g>
<g id="Group-45">
<g id="Group-76-Copy_2">
<g id="Rectangle_6">
<g id="Vector_21" filter="url(#filter2_d_3_55)">
<path d="M838.85 103.55H643.55C640.568 103.55 638.15 105.968 638.15 108.95V291.2C638.15 294.182 640.568 296.6 643.55 296.6H838.85C841.832 296.6 844.25 294.182 844.25 291.2V108.95C844.25 105.968 841.832 103.55 838.85 103.55Z" fill="black"/>
</g>
<path id="Vector_22" d="M838.85 103.55H643.55C640.568 103.55 638.15 105.968 638.15 108.95V291.2C638.15 294.182 640.568 296.6 643.55 296.6H838.85C841.832 296.6 844.25 294.182 844.25 291.2V108.95C844.25 105.968 841.832 103.55 838.85 103.55Z" fill="white"/>
</g>
<g id="Rectangle_7">
<g id="Vector_23" filter="url(#filter3_d_3_55)">
<path d="M742.1 124.7H666.95C663.968 124.7 661.55 127.118 661.55 130.1V167.45C661.55 170.432 663.968 172.85 666.95 172.85H742.1C745.082 172.85 747.5 170.432 747.5 167.45V130.1C747.5 127.118 745.082 124.7 742.1 124.7Z" fill="black"/>
</g>
<path id="Vector_24" d="M742.1 124.7H666.95C663.968 124.7 661.55 127.118 661.55 130.1V167.45C661.55 170.432 663.968 172.85 666.95 172.85H742.1C745.082 172.85 747.5 170.432 747.5 167.45V130.1C747.5 127.118 745.082 124.7 742.1 124.7Z" fill="white"/>
</g>
<path id="Oval-Copy-39_2" d="M677.075 219.65C685.649 219.65 692.6 212.699 692.6 204.125C692.6 195.551 685.649 188.6 677.075 188.6C668.501 188.6 661.55 195.551 661.55 204.125C661.55 212.699 668.501 219.65 677.075 219.65Z" fill="#00B3FF"/>
<path id="Rectangle_8" opacity="0.380371" d="M824 231.8H661.55V278.15H824V231.8Z" fill="#00B3FF"/>
<path id="Path-623_3" opacity="0.517229" d="M706.1 211.325H821.75" stroke="#00B3FF" stroke-width="8.1" stroke-linecap="round"/>
<path id="Path-623-Copy-3_2" d="M706.1 211.325H788.707" stroke="#00B3FF" stroke-width="8.1" stroke-linecap="round"/>
<path id="Path-623-Copy-5_2" opacity="0.517229" d="M706.1 197.825H821.75" stroke="#00B3FF" stroke-width="8.1" stroke-linecap="round"/>
<path id="Path-623-Copy-4_2" d="M706.1 197.825H788.707" stroke="#00B3FF" stroke-width="8.1" stroke-linecap="round"/>
</g>
<g id="Group-44">
<g id="Group-76-Copy-2">
<g id="Rectangle_9">
<g id="Vector_25" filter="url(#filter4_d_3_55)">
<path d="M643.55 103.55H838.85C841.832 103.55 844.25 105.968 844.25 108.95V326.3C844.25 329.282 841.832 331.7 838.85 331.7H643.55C640.568 331.7 638.15 329.282 638.15 326.3V108.95C638.15 105.968 640.568 103.55 643.55 103.55Z" fill="black"/>
</g>
<path id="Vector_26" d="M643.55 103.55H838.85C841.832 103.55 844.25 105.968 844.25 108.95V326.3C844.25 329.282 841.832 331.7 838.85 331.7H643.55C640.568 331.7 638.15 329.282 638.15 326.3V108.95C638.15 105.968 640.568 103.55 643.55 103.55Z" fill="white"/>
</g>
<g id="Rectangle_10">
<g id="Vector_27" filter="url(#filter5_d_3_55)">
<path d="M742.1 124.7H666.95C663.968 124.7 661.55 127.118 661.55 130.1V167.45C661.55 170.432 663.968 172.85 666.95 172.85H742.1C745.082 172.85 747.5 170.432 747.5 167.45V130.1C747.5 127.118 745.082 124.7 742.1 124.7Z" fill="black"/>
</g>
<path id="Vector_28" d="M742.1 124.7H666.95C663.968 124.7 661.55 127.118 661.55 130.1V167.45C661.55 170.432 663.968 172.85 666.95 172.85H742.1C745.082 172.85 747.5 170.432 747.5 167.45V130.1C747.5 127.118 745.082 124.7 742.1 124.7Z" fill="white"/>
</g>
<g id="Group-78_2">
<path id="Oval-Copy-39_3" d="M677.075 219.65C685.649 219.65 692.6 212.699 692.6 204.125C692.6 195.551 685.649 188.6 677.075 188.6C668.501 188.6 661.55 195.551 661.55 204.125C661.55 212.699 668.501 219.65 677.075 219.65Z" fill="#00B3FF">
<animate 
  attributeName="fill"
  values="#88C0FF;#00B3FF;#88C0FF"
  dur="3s"
  repeatCount="indefinite"/>
</path>
<path id="Rectangle_11" opacity="0.380371" d="M819.95 231.8H665.6C663.363 231.8 661.55 233.613 661.55 235.85V311C661.55 313.237 663.363 315.05 665.6 315.05H819.95C822.187 315.05 824 313.237 824 311V235.85C824 233.613 822.187 231.8 819.95 231.8Z" fill="#00B3FF">
<animate 
  attributeName="fill"
  values="#88C0FF;#00B3FF;#88C0FF"
  dur="3s"
  repeatCount="indefinite"/>
</path>
<path id="Path-623_4" opacity="0.517229" d="M706.1 211.325H821.75" stroke="#00B3FF" stroke-width="8.1" stroke-linecap="round"/>
<path id="Path-623-Copy-3_3" d="M706.1 211.325H788.707" stroke="#00B3FF" stroke-width="8.1" stroke-linecap="round"/>
<path id="Path-623-Copy-5_3" opacity="0.517229" d="M706.1 197.825H821.75" stroke="#00B3FF" stroke-width="8.1" stroke-linecap="round"/>
<path id="Path-623-Copy-4_3" d="M706.1 197.825H788.707" stroke="#00B3FF" stroke-width="8.1" stroke-linecap="round"/>
</g>
</g>
<g id="993791">
<path id="Rectangle_12" d="M698.695 161.741L706.168 135.592C706.496 134.444 707.692 133.779 708.84 134.107L708.841 134.108C709.99 134.437 710.654 135.634 710.326 136.783L702.853 162.932C702.525 164.08 701.328 164.744 700.181 164.416L700.179 164.416C699.031 164.087 698.366 162.889 698.695 161.741Z" fill="#061D38"/>
<path id="Path" d="M691.544 138.394C690.78 137.477 689.417 137.352 688.5 138.116L688.498 138.118L677.179 147.561C676.261 148.328 676.138 149.693 676.903 150.612C676.987 150.713 677.079 150.805 677.179 150.889L688.498 160.332C689.414 161.097 690.778 160.974 691.543 160.057L691.544 160.056C692.309 159.136 692.185 157.771 691.267 157.005L681.943 149.225L691.267 141.445C692.185 140.679 692.309 139.314 691.544 138.394Z" fill="#061D38"/>
<path id="Path_2" d="M732.147 147.838C732.063 147.737 731.971 147.645 731.871 147.561L720.552 138.118C719.636 137.353 718.272 137.476 717.507 138.392L717.506 138.394C716.741 139.314 716.865 140.679 717.783 141.445L727.107 149.225L717.783 157.005C716.865 157.771 716.741 159.136 717.506 160.056C718.27 160.973 719.633 161.098 720.55 160.334L720.552 160.332L731.871 150.889C732.789 150.122 732.912 148.757 732.147 147.838Z" fill="#061D38"/>
</g>
<g id="Group-77" opacity="0.4897">
<path id="Path-628" d="M763.751 137.525H823.55" stroke="#3E6C98" stroke-width="2.25" stroke-linecap="round"/>
<path id="Path-628-Copy" d="M763.751 146.525H790.195" stroke="#3E6C98" stroke-width="2.25" stroke-linecap="round"/>
<path id="Path-628-Copy-2" d="M797 146.75H823.444" stroke="#3E6C98" stroke-width="2.25" stroke-linecap="round"/>
<path id="Path-628-Copy-3" d="M763.7 155.75H807.636" stroke="#3E6C98" stroke-width="2.25" stroke-linecap="round"/>
<path id="Path-628-Copy-4" d="M763.7 164.75H823.55" stroke="#3E6C98" stroke-width="2.25" stroke-linecap="round"/>
</g>
</g>
</g>
<g id="card-2">
<g id="Group-76">
<g id="Rectangle_13">
<g id="Vector_29" filter="url(#filter6_d_3_55)">
<path d="M619.7 195.35H424.4C421.418 195.35 419 197.768 419 200.75V259.7C419 262.682 421.418 265.1 424.4 265.1H619.7C622.682 265.1 625.1 262.682 625.1 259.7V200.75C625.1 197.768 622.682 195.35 619.7 195.35Z" fill="black"/>
</g>
<path id="Vector_30" d="M619.7 195.35H424.4C421.418 195.35 419 197.768 419 200.75V259.7C419 262.682 421.418 265.1 424.4 265.1H619.7C622.682 265.1 625.1 262.682 625.1 259.7V200.75C625.1 197.768 622.682 195.35 619.7 195.35Z" fill="#00B3FF"/>
</g>
<path id="Path-623_5" d="M496.85 219.395H604.862" stroke="white" stroke-width="2.7216" stroke-linecap="round"/>
<path id="Path-623-Copy_2" d="M496.85 231.095H569.678" stroke="white" stroke-width="2.7216" stroke-linecap="round"/>
<path id="Path-623-Copy-2_2" d="M496.85 242.795H591.668" stroke="white" stroke-width="2.7216" stroke-linecap="round"/>
<g id="129817">
<path id="XMLID_503_" d="M477.545 224.429C478.072 223.902 478.072 223.047 477.545 222.52L475.519 220.494C475.061 220.036 474.341 219.968 473.805 220.332L469.546 223.227L472.423 218.939C472.783 218.403 472.713 217.688 472.257 217.232L467.862 212.837C467.456 212.432 466.839 212.327 466.322 212.576L465.562 212.941L465.926 212.134C466.156 211.622 466.046 211.022 465.65 210.625L464.27 209.245C463.743 208.718 462.888 208.718 462.361 209.245L451.646 219.961L466.83 235.145L477.545 224.429Z" fill="white"/>
<path id="XMLID_1199_" d="M449.65 221.956L446.548 225.058C446.295 225.311 446.153 225.654 446.153 226.012C446.153 226.37 446.295 226.714 446.548 226.967L449.491 229.909C450.058 230.476 450.333 231.259 450.245 232.056C450.158 232.852 449.719 233.557 449.042 233.988C440.396 239.5 439.59 240.306 439.326 240.571C437.425 242.471 437.425 245.564 439.326 247.465C441.228 249.367 444.321 249.364 446.22 247.465C446.484 247.2 447.291 246.394 452.802 237.748C453.232 237.072 453.936 236.635 454.733 236.547C455.533 236.46 456.315 236.734 456.881 237.299L459.823 240.242C460.35 240.769 461.205 240.769 461.732 240.242L464.834 237.14L449.65 221.956ZM444.205 245.284C443.459 246.029 442.251 246.029 441.506 245.284C440.761 244.539 440.761 243.331 441.506 242.586C442.251 241.841 443.459 241.841 444.205 242.586C444.95 243.331 444.95 244.539 444.205 245.284Z" fill="white"/>
</g>
</g>
</g>
</g>
<g id="man-1">
<path id="Path-11" fill-rule="evenodd" clip-rule="evenodd" d="M591.984 433.487C591.75 434.923 591.633 436.007 591.633 436.74C591.633 437.839 593.738 439.614 597.914 439.319C602.09 439.024 605.671 435.47 606.032 435.09C606.394 434.71 605.658 431.738 608.147 430.962C610.636 430.186 611.106 431.778 615.17 429.389C619.233 427 619.053 420.731 616.729 419.254C615.18 418.27 606.932 423.014 591.984 433.487Z" fill="#30334F"/>
<path id="Path-12" fill-rule="evenodd" clip-rule="evenodd" d="M621.264 450.772C620.822 451.919 620.601 453.148 620.601 454.46C620.601 456.428 624.531 457.484 629.262 457.484C633.994 457.484 632.154 455.564 635.344 455.012C638.534 454.46 638.125 456.387 642.782 456.387C647.438 456.387 653.828 455.48 654.745 450.772C655.356 447.633 644.196 447.633 621.264 450.772Z" fill="#30334F"/>
<path id="Path-10" fill-rule="evenodd" clip-rule="evenodd" d="M593.292 421.3C592.47 423.05 591.917 427.202 591.633 433.758C592.252 436.477 594.454 437.613 598.239 437.164C603.917 436.492 602.798 433.962 611.262 429.897C619.725 425.833 619.192 420.39 616.97 419.077C614.749 417.764 611.965 416.973 604.856 418.821C600.116 420.054 596.261 420.88 593.292 421.3Z" fill="#181E36"/>
<path id="Path-9" fill-rule="evenodd" clip-rule="evenodd" d="M637.763 438.591C638.916 441.256 641.792 442.917 646.391 443.572C653.29 444.556 656.81 447.263 656.182 449.887C655.555 452.51 652.108 455.614 644.459 454.926C636.81 454.238 635.227 454.899 631.332 455.239C627.437 455.578 622.855 455.586 620.945 452.736C620.486 450.49 620.486 447.683 620.945 444.317C621.634 439.267 622.812 438.904 622.812 437.175C622.812 436.023 627.795 436.495 637.763 438.591Z" fill="#181E36"/>
<path id="Path-15" fill-rule="evenodd" clip-rule="evenodd" d="M637.685 234.317C638.393 235.812 639.028 236.822 639.59 237.347C640.432 238.135 639.462 239.199 638.573 239.199C637.981 239.199 637.685 237.572 637.685 234.317Z" fill="#C47770"/>
<path id="Path-8" fill-rule="evenodd" clip-rule="evenodd" d="M642.598 308.061C644.67 311.185 644.085 319.001 644.285 325.914C644.741 341.663 643.201 360.535 643.201 364.191C643.201 369.453 640.654 407.566 640.654 416.361C640.654 422.225 640.321 429.293 639.656 437.564C632.213 440.979 625.981 440.874 620.959 437.25C622.011 389.275 622.537 363.842 622.537 360.951C622.537 358.06 622.352 355.786 621.981 354.128C617.744 372.037 615.625 382.181 615.625 384.561C615.625 386.94 613.364 399.409 608.841 421.966C606.108 424.279 603.066 425.128 599.716 424.511C596.365 423.895 593.919 422.697 592.376 420.916C593.409 398.642 595.258 384.852 597.924 379.547C598.488 369.221 601.407 341.138 601.407 334.259C601.407 327.38 597.95 314.217 602.285 302.48C606.62 290.743 635.807 297.818 642.598 308.061Z" fill="url(#paint0_linear_3_55)"/>
<path id="Path-17" d="M638.62 306.846C640.855 308.631 639.515 367.341 639.515 379.079C639.515 386.905 638.162 406.298 635.457 437.259" stroke="#1C478A" stroke-width="1.02643"/>
<path id="Path-43" fill-rule="evenodd" clip-rule="evenodd" d="M653.283 224.011C654.932 219.392 655.783 216.542 655.834 215.46C655.886 214.378 655.886 212.841 655.834 210.85C656.045 208.333 656.391 206.486 656.872 205.31C657.593 203.546 658.234 204.195 659.727 204.195C661.22 204.195 661.882 202.655 663.298 203.425C664.714 204.195 665.47 203.5 666.209 203.847C666.948 204.195 668.084 203.892 669.891 199.951C671.699 196.011 671.814 194.979 672.615 195.325C673.417 195.672 673.064 198.79 672.048 201.492C671.031 204.195 669.15 209.144 669.521 209.997C669.891 210.85 672.059 208.748 672.615 207.852C673.171 206.956 674.612 206.606 675.389 207.285C676.166 207.963 674.228 209.847 672.615 211.777C671.002 213.707 669.925 217.148 666.611 217.975C665.803 218.349 664.315 221.472 662.148 227.343L653.283 224.011Z" fill="#AC6A5A"/>
<path id="Path-39" fill-rule="evenodd" clip-rule="evenodd" d="M604.946 249.548C600.1 249.437 596.577 253.207 597.83 258.367C599.084 263.527 605.999 264.242 612.646 266.051C619.293 267.86 636.361 267.267 645.027 264.665C653.693 262.063 662.694 227.021 664.233 223.422C665.259 221.023 662.155 219.075 654.919 217.58L637.201 252.743C618.929 250.687 608.177 249.622 604.946 249.548Z" fill="#F0F0F0"/>
<path id="Oval_2" d="M639.717 236.055C641.038 235.652 641.606 233.873 640.987 232.082C640.367 230.291 638.795 229.166 637.474 229.57C636.153 229.973 635.584 231.752 636.203 233.542C636.823 235.333 638.396 236.458 639.717 236.055Z" stroke="#30334F" stroke-width="1.02643"/>
<path id="Path-7" fill-rule="evenodd" clip-rule="evenodd" d="M603.146 296.385C602.403 296.412 602.032 297.273 602.032 298.968C602.032 301.511 605.078 304.682 608.109 306.547C611.139 308.412 620.11 310.509 634.171 309.257C638.881 308.412 641.538 306.074 642.141 302.241L603.146 296.385Z" fill="#092965"/>
<path id="Rectangle_14" d="M636.942 228.738H633.971C633.561 228.738 633.228 229.05 633.228 229.435C633.228 229.82 633.561 230.133 633.971 230.133H636.942C637.352 230.133 637.685 229.82 637.685 229.435C637.685 229.05 637.352 228.738 636.942 228.738Z" fill="#30334F"/>
<path id="Path-3" fill-rule="evenodd" clip-rule="evenodd" d="M633.983 223.334C636.309 227.43 637.472 230.316 637.472 231.991C637.472 234.504 639.165 234.402 639.165 237.703C639.165 241.004 639.356 247.78 637.472 249.407C636.216 250.491 633.843 250.779 630.353 250.268C629.802 253.721 629.802 255.871 630.353 256.719C630.904 257.566 631.624 258.235 632.511 258.726C625.607 258.309 621.181 257.64 619.233 256.719C617.284 255.797 616.55 254.168 617.029 251.83C617.743 251.917 618.1 251.678 618.1 251.114C618.1 250.55 618.1 248.382 618.1 244.608C617.381 235.029 618.252 228.935 620.715 226.327C623.178 223.718 627.601 222.72 633.983 223.334Z" fill="#AC6A5A"/>
<g id="Path-40">
<path id="Mask_5" d="M634.763 259.99C640.173 261.69 643.73 263.401 645.434 265.125C646.932 266.639 645.518 275.989 641.191 293.175C642.313 295.86 643.081 298.443 643.495 300.924C643.908 303.404 643.466 304.872 642.168 305.327C633.295 308.458 623.107 308.295 611.605 304.838C606.581 302.965 603.381 300.485 602.006 297.399C600.996 295.886 601.493 291.811 603.498 285.174C601.996 275.36 598.137 256.952 600.612 251.797C601.658 249.384 607.118 249.014 616.992 250.687L634.763 259.99Z" fill="url(#paint1_linear_3_55)"/>
<g id="Mask group_13">
<mask id="mask12_3_55" style="mask-type:luminance" maskUnits="userSpaceOnUse" x="599" y="249" width="48" height="59">
<g id="Group_14">
<path id="Vector_31" d="M634.763 259.99C640.173 261.69 643.73 263.401 645.434 265.125C646.932 266.639 645.518 275.989 641.191 293.175C642.313 295.86 643.081 298.443 643.495 300.924C643.908 303.404 643.466 304.872 642.168 305.327C633.295 308.458 623.107 308.295 611.605 304.838C606.581 302.965 603.381 300.485 602.006 297.399C600.996 295.886 601.493 291.811 603.498 285.174C601.996 275.36 598.137 256.952 600.612 251.797C601.658 249.384 607.118 249.014 616.992 250.687L634.763 259.99Z" fill="#D8D8D8"/>
</g>
</mask>
<g mask="url(#mask12_3_55)">
<path id="Vector_32" fill-rule="evenodd" clip-rule="evenodd" d="M637.217 269.736C636.074 275.209 638.173 281.598 643.512 288.902C651.522 299.859 640.65 298.505 635.41 288.902C631.917 282.5 632.519 276.111 637.217 269.736Z" fill="#D8D8D8"/>
</g>
</g>
<g id="Mask group_14">
<mask id="mask13_3_55" style="mask-type:luminance" maskUnits="userSpaceOnUse" x="599" y="249" width="48" height="60">
<g id="Group_15">
<path id="Vector_33" d="M634.763 259.99C640.173 261.69 643.73 263.401 645.434 265.125C646.932 266.639 645.518 275.989 641.191 293.175C642.313 295.86 643.081 298.443 643.495 300.924C643.908 303.404 643.466 304.872 642.168 305.327C633.295 308.458 623.107 308.295 611.605 304.838C606.581 302.965 603.381 300.485 602.006 297.399C600.996 295.886 601.493 291.811 603.498 285.174C601.996 275.36 598.137 256.952 600.612 251.797C601.658 249.384 607.118 249.014 616.992 250.687L634.763 259.99Z" stroke="#D8D8D8" stroke-width="1.02643"/>
</g>
</mask>
<g mask="url(#mask13_3_55)">
<path id="Path-20" d="M599.804 260.692C607.428 270.938 621.791 276.911 642.892 278.61" stroke="#D8D8D8" stroke-width="1.02643"/>
</g>
</g>
</g>
<g id="Path-19">
<path id="Mask_6" d="M625.389 238.106C623.986 238.106 621.662 238.37 623.525 242.706C625.389 247.041 620.154 249.549 618.509 248.948C616.865 248.346 611.46 240.675 608.574 238.642C606.65 237.287 606.794 234.65 609.005 230.73C607.36 226.706 608.483 223.803 612.373 222.02C618.207 219.346 627.644 214.646 631.705 215.617C634.413 216.265 635.42 217.186 634.728 218.38C639.079 220.279 640.124 222.248 637.861 224.288C635.598 226.328 632.435 227.72 628.371 228.463C631.084 229.865 632.196 231.435 631.705 233.171C630.97 235.777 630.208 238.824 631.705 240.978C633.203 243.133 638.892 242.941 639.428 240.978C640.132 242.472 639.945 247.169 639.687 248.265C639.428 249.361 640.403 251.024 635.126 251.024C629.85 251.024 631.852 246.214 630.233 242.706C628.614 239.197 626.792 238.106 625.389 238.106Z" fill="#30334F"/>
<g id="Mask group_15">
<mask id="mask14_3_55" style="mask-type:luminance" maskUnits="userSpaceOnUse" x="607" y="215" width="33" height="37">
<g id="Group_16">
<path id="Vector_34" d="M625.389 238.106C623.986 238.106 621.662 238.37 623.525 242.706C625.389 247.041 620.154 249.549 618.509 248.948C616.865 248.346 611.46 240.675 608.574 238.642C606.65 237.287 606.794 234.65 609.005 230.73C607.36 226.706 608.483 223.803 612.373 222.02C618.207 219.346 627.644 214.646 631.705 215.617C634.413 216.265 635.42 217.186 634.728 218.38C639.079 220.279 640.124 222.248 637.861 224.288C635.598 226.328 632.435 227.72 628.371 228.463C631.084 229.865 632.196 231.435 631.705 233.171C630.97 235.777 630.208 238.824 631.705 240.978C633.203 243.133 638.892 242.941 639.428 240.978C640.132 242.472 639.945 247.169 639.687 248.265C639.428 249.361 640.403 251.024 635.126 251.024C629.85 251.024 631.852 246.214 630.233 242.706C628.614 239.197 626.792 238.106 625.389 238.106Z" fill="url(#paint2_linear_3_55)"/>
</g>
</mask>
<g mask="url(#mask14_3_55)">
<path id="Vector_35" fill-rule="evenodd" clip-rule="evenodd" d="M628.371 228.463C619.473 229.572 617.875 234.58 623.575 243.486C632.126 256.845 626.767 240.777 631.15 239.137C634.072 238.044 634.072 234.197 631.15 227.596L628.371 228.463Z" fill="url(#paint3_linear_3_55)"/>
</g>
</g>
</g>
<path id="Path-5" fill-rule="evenodd" clip-rule="evenodd" d="M617.74 249.66C617.535 250.546 619.006 251.383 622.155 252.17C626.877 253.35 630.733 254.8 632.769 257.645L634.714 260.121C624.487 257.628 618.504 255.72 616.764 254.397C614.154 252.412 616.097 251.156 616.097 251.156C616.097 251.156 616.645 250.657 617.74 249.66Z" fill="#D8D8D8"/>
<g id="Path-13" style="mix-blend-mode:multiply">
<path fill-rule="evenodd" clip-rule="evenodd" d="M619.858 318.702V322.259C624.615 323.763 629.567 323.986 634.714 322.93V319.877C631.17 320.014 628.527 320.014 626.787 319.877C625.046 319.739 622.737 319.348 619.858 318.702Z" fill="#828EB7"/>
</g>
<g id="Path-14" style="mix-blend-mode:multiply">
<path fill-rule="evenodd" clip-rule="evenodd" d="M622.087 354.605L620.906 336.296C619.011 335.997 617.447 335.506 616.216 334.824C614.985 334.142 613.515 332.952 611.807 331.255C611.432 337.891 611.944 343.791 613.343 348.957C615.441 356.705 619.045 364.735 618.624 368.915L622.087 354.605Z" fill="#828EB7"/>
</g>
<path id="Path-16" d="M640.656 230.83L625.801 237.107" stroke="#30334F" stroke-width="1.02643"/>
<g id="Group-21">
<g id="Path-35-+-Path-36-Mask-Copy">
<g id="Path-35-+-Path-36-Mask">
<path id="Mask_7" d="M709.611 283.371C710.955 282.508 713.811 279.368 716.168 281.582C719.66 280.665 723.435 280.051 725.108 279.98C727.959 279.858 730.753 280.875 732.178 280.876C733.603 280.877 732.089 283.151 730.255 282.852C728.42 282.552 725.198 282.278 724.275 282.569C723.659 282.762 722.762 283.119 721.583 283.64C724.039 283.718 725.593 283.955 726.246 284.35C727.225 284.943 727.611 287.763 728.418 288.807C729.225 289.85 727.281 290.365 726.71 289.557C726.694 290.294 726.69 290.83 726.698 291.164C726.713 291.808 726.89 292.561 726.63 292.677C725.939 292.985 724.472 292.459 724.532 290.834C724.137 291.312 723.784 291.863 723.473 292.488C723.006 293.426 721.828 292.464 721.953 291.507C722.037 290.87 722.198 290.321 722.436 289.86C718.755 291.865 716.141 292.986 714.595 293.223C713.048 293.46 711.179 293.069 708.988 292.049L691.47 300.823L687.852 293.401C700.19 288.107 707.443 284.763 709.611 283.371Z" fill="#AC6A5A"/>
<g id="Mask group_16">
<mask id="mask15_3_55" style="mask-type:luminance" maskUnits="userSpaceOnUse" x="701" y="268" width="21" height="45">
<g id="Group_17">
<path id="Vector_36" d="M704.301 288.418C704.234 286.89 702.913 282.951 706.16 282.246C707.183 278.978 708.629 275.645 709.451 274.274C710.853 271.939 713.25 270.251 714.007 269.116C714.763 267.981 716.014 270.393 714.771 271.696C713.529 272.998 711.574 275.42 711.347 276.31C711.196 276.903 711.042 277.807 710.887 279.022C712.26 277.107 713.297 275.994 714 275.684C715.053 275.218 717.804 276.405 719.174 276.315C720.543 276.225 719.978 278.047 718.946 278.073C719.603 278.477 720.084 278.764 720.39 278.934C720.98 279.263 721.752 279.522 721.719 279.79C721.631 280.504 720.379 281.394 718.944 280.485C719.166 281.053 719.477 281.626 719.876 282.205C720.475 283.074 718.983 283.503 718.186 282.896C717.654 282.492 717.244 282.073 716.955 281.639C716.814 285.634 716.441 288.31 715.835 289.668C715.229 291.026 713.885 292.308 711.804 293.513L710.441 312.119L701.824 311.068C703.583 298.433 704.409 290.883 704.301 288.418Z" fill="#7D4436"/>
</g>
</mask>
<g mask="url(#mask15_3_55)">
<path id="Path-35" fill-rule="evenodd" clip-rule="evenodd" d="M726.71 289.557C726.722 286.838 726.128 285.346 724.927 285.081C723.727 284.816 722.786 284.625 722.106 284.509C724.292 284.174 725.64 284.329 726.152 284.975C726.495 285.409 727.835 288.629 727.886 289.856C727.35 290.006 726.958 289.906 726.71 289.557Z" fill="#7D4436"/>
</g>
</g>
<g id="Mask group_17">
<mask id="mask16_3_55" style="mask-type:luminance" maskUnits="userSpaceOnUse" x="701" y="268" width="21" height="45">
<g id="Group_18">
<path id="Vector_37" d="M704.301 288.418C704.234 286.89 702.913 282.951 706.16 282.246C707.183 278.978 708.629 275.645 709.451 274.274C710.853 271.939 713.25 270.251 714.007 269.116C714.763 267.981 716.014 270.393 714.771 271.696C713.529 272.998 711.574 275.42 711.347 276.31C711.196 276.903 711.042 277.807 710.887 279.022C712.26 277.107 713.297 275.994 714 275.684C715.053 275.218 717.804 276.405 719.174 276.315C720.543 276.225 719.978 278.047 718.946 278.073C719.603 278.477 720.084 278.764 720.39 278.934C720.98 279.263 721.752 279.522 721.719 279.79C721.631 280.504 720.379 281.394 718.944 280.485C719.166 281.053 719.477 281.626 719.876 282.205C720.475 283.074 718.983 283.503 718.186 282.896C717.654 282.492 717.244 282.073 716.955 281.639C716.814 285.634 716.441 288.31 715.835 289.668C715.229 291.026 713.885 292.308 711.804 293.513L710.441 312.119L701.824 311.068C703.583 298.433 704.409 290.883 704.301 288.418Z" fill="#7D4436"/>
</g>
</mask>
<g mask="url(#mask16_3_55)">
<path id="Path-36" fill-rule="evenodd" clip-rule="evenodd" d="M724.523 290.802C725.513 288.899 725.804 287.656 725.397 287.071C724.989 286.487 723.902 286.072 722.135 285.826C723.61 285.414 724.725 285.619 725.479 286.441C726.081 287.098 725.816 288.684 725.517 290.916C725.467 291.291 725.501 291.857 725.621 292.613C725.24 292.472 724.959 292.202 724.779 291.801C724.598 291.4 724.513 291.067 724.523 290.802Z" fill="#7D4436"/>
</g>
</g>
<g id="Mask group_18">
<mask id="mask17_3_55" style="mask-type:luminance" maskUnits="userSpaceOnUse" x="701" y="268" width="21" height="45">
<g id="Group_19">
<path id="Vector_38" d="M704.301 288.418C704.234 286.89 702.913 282.951 706.16 282.246C707.183 278.978 708.629 275.645 709.451 274.274C710.853 271.939 713.25 270.251 714.007 269.116C714.763 267.981 716.014 270.393 714.771 271.696C713.529 272.998 711.574 275.42 711.347 276.31C711.196 276.903 711.042 277.807 710.887 279.022C712.26 277.107 713.297 275.994 714 275.684C715.053 275.218 717.804 276.405 719.174 276.315C720.543 276.225 719.978 278.047 718.946 278.073C719.603 278.477 720.084 278.764 720.39 278.934C720.98 279.263 721.752 279.522 721.719 279.79C721.631 280.504 720.379 281.394 718.944 280.485C719.166 281.053 719.477 281.626 719.876 282.205C720.475 283.074 718.983 283.503 718.186 282.896C717.654 282.492 717.244 282.073 716.955 281.639C716.814 285.634 716.441 288.31 715.835 289.668C715.229 291.026 713.885 292.308 711.804 293.513L710.441 312.119L701.824 311.068C703.583 298.433 704.409 290.883 704.301 288.418Z" fill="#7D4436"/>
</g>
</mask>
<g mask="url(#mask17_3_55)">
<path id="Path-34_2" fill-rule="evenodd" clip-rule="evenodd" d="M716.168 281.582L713.563 282.103L715.922 280.077L716.168 281.582Z" fill="#7D4436"/>
</g>
</g>
</g>
</g>
<path id="Path-39-Copy" fill-rule="evenodd" clip-rule="evenodd" d="M645.972 265.948C643.081 262.24 640.484 261.81 636.981 265.936C633.478 270.061 634.982 278.109 637.575 284.218C640.167 290.327 651.164 302.781 658.654 307.685C666.143 312.589 700.712 297.728 704.64 296.663C707.259 295.953 706.962 292.419 703.747 286.062L663.713 294.45C653.813 277.922 647.899 268.421 645.972 265.948Z" fill="#F0F0F0"/>
</g>
<path id="Path-4" d="M611.408 313.123C607.499 326.32 610.665 334.044 620.906 336.296C616.851 360.016 614.052 375.196 612.508 381.837C610.964 388.477 608.792 402.489 605.993 423.873" stroke="#1C478A" stroke-width="1.02643"/>
<path id="Path-96" d="M628.772 258.726C636.377 261.378 640.862 263.36 642.227 264.672C643.592 265.984 650.213 276.788 662.089 297.083L703.791 287.274" stroke="#D8D8D8" stroke-width="1.02643"/>
<path id="Path-42" fill-rule="evenodd" clip-rule="evenodd" d="M627.452 238.98C625.943 237.315 624.639 236.76 623.539 237.315C621.89 238.147 621.335 240.35 623.539 243.19C625.009 245.083 626.505 245.284 628.029 243.792L627.452 238.98Z" fill="#AC6A5A"/>
<path id="Path-42-Copy" style="mix-blend-mode:multiply" fill-rule="evenodd" clip-rule="evenodd" d="M626.998 240.221C626.243 239.312 625.591 239.01 625.041 239.312C624.216 239.767 623.939 240.968 625.041 242.517C625.776 243.55 626.524 243.659 627.286 242.845L626.998 240.221Z" fill="url(#paint4_linear_3_55)"/>
</g>
</g>
</g>
</g>
<defs>
<filter id="filter0_d_3_55" x="406" y="100.15" width="226.1" height="89.75" filterUnits="userSpaceOnUse" color-interpolation-filters="sRGB">
<feFlood flood-opacity="0" result="BackgroundImageFix"/>
<feColorMatrix in="SourceAlpha" type="matrix" values="0 0 0 0 0 0 0 0 0 0 0 0 0 0 0 0 0 0 127 0" result="hardAlpha"/>
<feOffset dx="-3" dy="3"/>
<feGaussianBlur stdDeviation="5"/>
<feColorMatrix type="matrix" values="0 0 0 0 0.0925881 0 0 0 0 0.430615 0 0 0 0 0.573539 0 0 0 0.163298 0"/>
<feBlend mode="normal" in2="BackgroundImageFix" result="effect1_dropShadow_3_55"/>
<feBlend mode="normal" in="SourceGraphic" in2="effect1_dropShadow_3_55" result="shape"/>
</filter>
<filter id="filter1_d_3_55" x="446.05" y="276.553" width="186.05" height="89.75" filterUnits="userSpaceOnUse" color-interpolation-filters="sRGB">
<feFlood flood-opacity="0" result="BackgroundImageFix"/>
<feColorMatrix in="SourceAlpha" type="matrix" values="0 0 0 0 0 0 0 0 0 0 0 0 0 0 0 0 0 0 127 0" result="hardAlpha"/>
<feOffset dx="-3" dy="3"/>
<feGaussianBlur stdDeviation="5"/>
<feColorMatrix type="matrix" values="0 0 0 0 0.0925881 0 0 0 0 0.430615 0 0 0 0 0.573539 0 0 0 0.163298 0"/>
<feBlend mode="normal" in2="BackgroundImageFix" result="effect1_dropShadow_3_55"/>
<feBlend mode="normal" in="SourceGraphic" in2="effect1_dropShadow_3_55" result="shape"/>
</filter>
<filter id="filter2_d_3_55" x="625.15" y="96.55" width="226.1" height="213.05" filterUnits="userSpaceOnUse" color-interpolation-filters="sRGB">
<feFlood flood-opacity="0" result="BackgroundImageFix"/>
<feColorMatrix in="SourceAlpha" type="matrix" values="0 0 0 0 0 0 0 0 0 0 0 0 0 0 0 0 0 0 127 0" result="hardAlpha"/>
<feOffset dx="-3" dy="3"/>
<feGaussianBlur stdDeviation="5"/>
<feColorMatrix type="matrix" values="0 0 0 0 0.0925881 0 0 0 0 0.430615 0 0 0 0 0.573539 0 0 0 0.163298 0"/>
<feBlend mode="normal" in2="BackgroundImageFix" result="effect1_dropShadow_3_55"/>
<feBlend mode="normal" in="SourceGraphic" in2="effect1_dropShadow_3_55" result="shape"/>
</filter>
<filter id="filter3_d_3_55" x="648.55" y="117.7" width="105.95" height="68.15" filterUnits="userSpaceOnUse" color-interpolation-filters="sRGB">
<feFlood flood-opacity="0" result="BackgroundImageFix"/>
<feColorMatrix in="SourceAlpha" type="matrix" values="0 0 0 0 0 0 0 0 0 0 0 0 0 0 0 0 0 0 127 0" result="hardAlpha"/>
<feOffset dx="-3" dy="3"/>
<feGaussianBlur stdDeviation="5"/>
<feColorMatrix type="matrix" values="0 0 0 0 0.0925881 0 0 0 0 0.430615 0 0 0 0 0.573539 0 0 0 0.163298 0"/>
<feBlend mode="normal" in2="BackgroundImageFix" result="effect1_dropShadow_3_55"/>
<feBlend mode="normal" in="SourceGraphic" in2="effect1_dropShadow_3_55" result="shape"/>
</filter>
<filter id="filter4_d_3_55" x="625.15" y="96.55" width="226.1" height="248.15" filterUnits="userSpaceOnUse" color-interpolation-filters="sRGB">
<feFlood flood-opacity="0" result="BackgroundImageFix"/>
<feColorMatrix in="SourceAlpha" type="matrix" values="0 0 0 0 0 0 0 0 0 0 0 0 0 0 0 0 0 0 127 0" result="hardAlpha"/>
<feOffset dx="-3" dy="3"/>
<feGaussianBlur stdDeviation="5"/>
<feColorMatrix type="matrix" values="0 0 0 0 0.0925881 0 0 0 0 0.430615 0 0 0 0 0.573539 0 0 0 0.163298 0"/>
<feBlend mode="normal" in2="BackgroundImageFix" result="effect1_dropShadow_3_55"/>
<feBlend mode="normal" in="SourceGraphic" in2="effect1_dropShadow_3_55" result="shape"/>
</filter>
<filter id="filter5_d_3_55" x="648.55" y="117.7" width="105.95" height="68.15" filterUnits="userSpaceOnUse" color-interpolation-filters="sRGB">
<feFlood flood-opacity="0" result="BackgroundImageFix"/>
<feColorMatrix in="SourceAlpha" type="matrix" values="0 0 0 0 0 0 0 0 0 0 0 0 0 0 0 0 0 0 127 0" result="hardAlpha"/>
<feOffset dx="-3" dy="3"/>
<feGaussianBlur stdDeviation="5"/>
<feColorMatrix type="matrix" values="0 0 0 0 0.0925881 0 0 0 0 0.430615 0 0 0 0 0.573539 0 0 0 0.163298 0"/>
<feBlend mode="normal" in2="BackgroundImageFix" result="effect1_dropShadow_3_55"/>
<feBlend mode="normal" in="SourceGraphic" in2="effect1_dropShadow_3_55" result="shape"/>
</filter>
<filter id="filter6_d_3_55" x="406" y="188.35" width="226.1" height="89.75" filterUnits="userSpaceOnUse" color-interpolation-filters="sRGB">
<feFlood flood-opacity="0" result="BackgroundImageFix"/>
<feColorMatrix in="SourceAlpha" type="matrix" values="0 0 0 0 0 0 0 0 0 0 0 0 0 0 0 0 0 0 127 0" result="hardAlpha"/>
<feOffset dx="-3" dy="3"/>
<feGaussianBlur stdDeviation="5"/>
<feColorMatrix type="matrix" values="0 0 0 0 0.0925881 0 0 0 0 0.430615 0 0 0 0 0.573539 0 0 0 0.163298 0"/>
<feBlend mode="normal" in2="BackgroundImageFix" result="effect1_dropShadow_3_55"/>
<feBlend mode="normal" in="SourceGraphic" in2="effect1_dropShadow_3_55" result="shape"/>
</filter>
<linearGradient id="paint0_linear_3_55" x1="3192.07" y1="296.385" x2="3192.07" y2="14662.8" gradientUnits="userSpaceOnUse">
<stop stop-color="#00B3FF"/>
<stop offset="1" stop-color="#5586FF"/>
</linearGradient>
<linearGradient id="paint1_linear_3_55" x1="2910.21" y1="249.66" x2="2910.21" y2="6039.61" gradientUnits="userSpaceOnUse">
<stop stop-color="white"/>
<stop offset="1" stop-color="#F0F0F0"/>
</linearGradient>
<linearGradient id="paint2_linear_3_55" x1="2293.09" y1="1899.55" x2="1778.41" y2="880.123" gradientUnits="userSpaceOnUse">
<stop stop-color="#30334F"/>
<stop offset="1" stop-color="#181E36"/>
</linearGradient>
<linearGradient id="paint3_linear_3_55" x1="1296.13" y1="1230.26" x2="930.571" y2="742.683" gradientUnits="userSpaceOnUse">
<stop stop-color="#30334F"/>
<stop offset="1" stop-color="#181E36"/>
</linearGradient>
<linearGradient id="paint4_linear_3_55" x1="803.12" y1="471.428" x2="689.575" y2="442.595" gradientUnits="userSpaceOnUse">
<stop stop-color="white"/>
<stop offset="1" stop-color="#E6E6E6"/>
</linearGradient>
<animateTransform
  attributeName="transform"
  attributeType="XML"
  type="rotate"
  from="0 453.888 142.948"
  to="360 453.888 142.948"
  dur="10s"
  repeatCount="indefinite"/>
</defs>
</svg>
