<?xml version="1.0" encoding="UTF-8"?>
<svg width="200" height="200" viewBox="0 0 200 200" fill="none" xmlns="http://www.w3.org/2000/svg">
  <path id="Shape" d="M71.954 40.887C71.896 40.375 71.299 39.991 70.783 39.991C69.114 39.991 67.634 39.011 67.013 37.495C66.378 35.943 66.787 34.133 68.031 32.993C68.422 32.635 68.47 32.036 68.142 31.62C67.288 30.535 66.317 29.555 65.257 28.706C64.842 28.373 64.233 28.42 63.873 28.818C62.788 30.02 60.838 30.467 59.332 29.838C57.764 29.179 56.775 27.59 56.872 25.885C56.904 25.349 56.512 24.883 55.978 24.821C54.618 24.664 53.246 24.659 51.882 24.81C51.354 24.869 50.962 25.323 50.98 25.852C51.039 27.541 50.039 29.102 48.487 29.737C46.998 30.345 45.062 29.902 43.979 28.711C43.621 28.319 43.022 28.27 42.605 28.596C41.514 29.452 40.521 30.432 39.659 31.508C39.323 31.926 39.373 32.532 39.768 32.892C41.035 34.04 41.444 35.865 40.786 37.435C40.157 38.932 38.603 39.897 36.824 39.897C36.247 39.878 35.835 40.266 35.772 40.791C35.612 42.159 35.61 43.552 35.764 44.932C35.822 45.446 36.437 45.827 36.958 45.827C38.544 45.787 40.066 46.768 40.705 48.322C41.342 49.874 40.932 51.683 39.687 52.825C39.297 53.183 39.248 53.781 39.576 54.197C40.422 55.275 41.393 56.255 42.457 57.111C42.874 57.448 43.481 57.4 43.843 57.002C44.932 55.797 46.882 55.351 48.382 55.981C49.954 56.638 50.942 58.227 50.846 59.933C50.814 60.469 51.208 60.935 51.739 60.996C52.435 61.078 53.135 61.118 53.837 61.118C54.503 61.118 55.17 61.082 55.836 61.007C56.364 60.949 56.755 60.494 56.737 59.965C56.676 58.277 57.679 56.716 59.229 56.082C60.727 55.469 62.655 55.917 63.738 57.108C64.098 57.499 64.693 57.546 65.113 57.222C66.202 56.368 67.193 55.389 68.059 54.31C68.395 53.893 68.347 53.286 67.95 52.926C66.682 51.778 66.271 49.952 66.93 48.384C67.548 46.907 69.045 45.915 70.655 45.915L70.88 45.921C71.402 45.963 71.882 45.561 71.946 45.028C72.106 43.659 72.108 42.266 71.954 40.887ZM53.888 49.021C50.539 49.021 47.814 46.297 47.814 42.948C47.814 39.598 50.539 36.874 53.888 36.874C57.237 36.874 59.961 39.598 59.961 42.948C59.961 46.297 57.237 49.021 53.888 49.021Z" fill="#88C0FF">
    <animate 
      attributeName="fill"
      values="#88C0FF;#00B3FF;#88C0FF"
      dur="3s"
      repeatCount="indefinite"/>
    <animateTransform
      attributeName="transform"
      attributeType="XML"
      type="rotate"
      from="0 53.888 42.948"
      to="360 53.888 42.948"
      dur="10s"
      repeatCount="indefinite"/>
  </path>
</svg> 